<svg xmlns="http://www.w3.org/2000/svg" width="64" height="64" viewBox="0 0 64 64"><g transform="translate(-1301 -2230)"><rect width="64" height="64" transform="translate(1301 2230)" fill="none"/><path d="M2.132,26h13.2v5.333H7.5A21.344,21.344,0,0,0,26,49.835V23a10.667,10.667,0,1,1,5.333,0V49.835a21.344,21.344,0,0,0,18.5-18.5H42V26H55.2q.131,1.316.132,2.667A26.667,26.667,0,1,1,2,28.667Q2,27.317,2.132,26Zm26.535-8a5.333,5.333,0,1,0-5.333-5.333A5.333,5.333,0,0,0,28.667,18Z" transform="translate(1304.333 2233.333)"/></g></svg>