<svg xmlns="http://www.w3.org/2000/svg" width="64" height="64" viewBox="0 0 64 64"><g transform="translate(-444 -2217)"><rect width="64" height="64" transform="translate(444 2217)" fill="none"/><path d="M8,28.3V9.714a2.954,2.954,0,0,1,3-2.9H26V1H38V6.81H53a2.954,2.954,0,0,1,3,2.9V28.3l3.257.946a2.894,2.894,0,0,1,2.048,3.487L56.755,50.363q-.375.018-.755.018a15.417,15.417,0,0,1-4.95-.81L54.8,34.027,32,27.143,9.2,34.027l3.75,15.544a15.416,15.416,0,0,1-4.95.81q-.38,0-.755-.018L2.695,32.738a2.894,2.894,0,0,1,2.048-3.487Zm6-1.743,18-5.229,18,5.229V12.619H14ZM8,56.19a18.269,18.269,0,0,0,12-4.438,18.443,18.443,0,0,0,24,0A18.269,18.269,0,0,0,56,56.19h6V62H56a24.494,24.494,0,0,1-12-3.109,24.713,24.713,0,0,1-24,0A24.493,24.493,0,0,1,8,62H2V56.19Z" transform="translate(444 2218)"/></g></svg>