<svg xmlns="http://www.w3.org/2000/svg" width="64" height="64" viewBox="0 0 64 64"><g transform="translate(-959 -2254)"><rect width="64" height="64" transform="translate(959 2254)" fill="none"/><path d="M4,57a21.333,21.333,0,0,1,42.667,0ZM28,41.221V51.667H40.423A16.022,16.022,0,0,0,28,41.221ZM22.667,51.667V41.221A16.022,16.022,0,0,0,10.244,51.667ZM25.333,33a16,16,0,1,1,16-16A16,16,0,0,1,25.333,33Zm0-5.333A10.667,10.667,0,1,0,14.667,17,10.662,10.662,0,0,0,25.333,27.667Z" transform="translate(965.667 2258.333)"/></g></svg>